<svg xmlns="http://www.w3.org/2000/svg" width="1600" height="1100" viewBox="0 0 1600 1100"><rect width="100%" height="100%" fill="white"/>
<circle cx="800.0" cy="230.0" r="145" fill="none" stroke="#bbb" stroke-width="1"/><text x="800.0" y="75.0" font-family="monospace" font-size="15" text-anchor="middle">Authorship, Control, Contribution</text>
<circle cx="1137.7" cy="390.0" r="145" fill="none" stroke="#bbb" stroke-width="1"/><text x="1137.7" y="235.0" font-family="monospace" font-size="15" text-anchor="middle">Prompt, Program, Configuration</text>
<circle cx="1137.7" cy="710.0" r="145" fill="none" stroke="#bbb" stroke-width="1"/><text x="1137.7" y="555.0" font-family="monospace" font-size="15" text-anchor="middle">Contribution Topology</text>
<circle cx="800.0" cy="870.0" r="145" fill="none" stroke="#bbb" stroke-width="1"/><text x="800.0" y="715.0" font-family="monospace" font-size="15" text-anchor="middle">Provenance, Receipts, Reactivity</text>
<circle cx="462.3" cy="710.0" r="145" fill="none" stroke="#bbb" stroke-width="1"/><text x="462.3" y="555.0" font-family="monospace" font-size="15" text-anchor="middle">Governance and Calibration</text>
<circle cx="462.3" cy="390.0" r="145" fill="none" stroke="#bbb" stroke-width="1"/><text x="462.3" y="235.0" font-family="monospace" font-size="15" text-anchor="middle">Prompt as Epistemic Instrument</text>
<line x1="587.3" y1="710.0" x2="925.0" y2="230.0" stroke="#aaa" stroke-width="1"/>
<line x1="925.0" y1="230.0" x2="905.2" y2="278.7" stroke="#aaa" stroke-width="1"/>
<line x1="905.2" y1="278.7" x2="1262.7" y2="390.0" stroke="#aaa" stroke-width="1"/>
<line x1="1262.7" y1="390.0" x2="1168.4" y2="797.2" stroke="#aaa" stroke-width="1"/>
<line x1="1168.4" y1="797.2" x2="782.2" y2="319.1" stroke="#aaa" stroke-width="1"/>
<line x1="782.2" y1="319.1" x2="1014.9" y2="406.5" stroke="#aaa" stroke-width="1"/>
<line x1="1014.9" y1="406.5" x2="1027.8" y2="752.8" stroke="#aaa" stroke-width="1"/>
<line x1="1027.8" y1="752.8" x2="1103.5" y2="303.4" stroke="#aaa" stroke-width="1"/>
<line x1="1103.5" y1="303.4" x2="925.0" y2="870.0" stroke="#aaa" stroke-width="1"/>
<line x1="925.0" y1="870.0" x2="690.1" y2="912.8" stroke="#aaa" stroke-width="1"/>
<line x1="690.1" y1="912.8" x2="898.6" y2="925.3" stroke="#aaa" stroke-width="1"/>
<line x1="898.6" y1="925.3" x2="540.2" y2="780.4" stroke="#aaa" stroke-width="1"/>
<line x1="540.2" y1="780.4" x2="384.3" y2="780.4" stroke="#aaa" stroke-width="1"/>
<line x1="384.3" y1="780.4" x2="361.1" y2="337.1" stroke="#aaa" stroke-width="1"/>
<line x1="361.1" y1="337.1" x2="500.9" y2="304.4" stroke="#aaa" stroke-width="1"/>
<line x1="500.9" y1="304.4" x2="563.4" y2="337.1" stroke="#aaa" stroke-width="1"/>
<circle cx="587.3" cy="710.0" r="6" fill="#222"/><text x="595.3" y="713.0" font-family="monospace" font-size="9">PF-001</text>
<circle cx="1262.7" cy="710.0" r="6" fill="#222"/><text x="1270.7" y="713.0" font-family="monospace" font-size="9">PF-002</text>
<circle cx="574.9" cy="749.0" r="6" fill="#222"/><text x="582.9" y="752.0" font-family="monospace" font-size="9">PF-003</text>
<circle cx="925.0" cy="230.0" r="6" fill="#222"/><text x="933.0" y="233.0" font-family="monospace" font-size="9">PF-004</text>
<circle cx="905.2" cy="278.7" r="6" fill="#222"/><text x="913.2" y="281.7" font-family="monospace" font-size="9">PF-005</text>
<circle cx="970.0" cy="550.0" r="6" fill="#222"/><text x="978.0" y="553.0" font-family="monospace" font-size="9">PF-006</text>
<circle cx="587.3" cy="390.0" r="6" fill="#222"/><text x="595.3" y="393.0" font-family="monospace" font-size="9">PF-007</text>
<circle cx="1262.7" cy="390.0" r="6" fill="#222"/><text x="1270.7" y="393.0" font-family="monospace" font-size="9">PF-008</text>
<circle cx="563.4" cy="442.9" r="6" fill="#222"/><text x="571.4" y="445.9" font-family="monospace" font-size="9">PF-009</text>
<circle cx="500.9" cy="475.6" r="6" fill="#222"/><text x="508.9" y="478.6" font-family="monospace" font-size="9">PF-010</text>
<circle cx="1256.0" cy="739.2" r="6" fill="#222"/><text x="1264.0" y="742.2" font-family="monospace" font-size="9">PF-011</text>
<circle cx="1236.4" cy="765.3" r="6" fill="#222"/><text x="1244.4" y="768.3" font-family="monospace" font-size="9">PF-012</text>
<circle cx="1206.1" cy="785.3" r="6" fill="#222"/><text x="1214.1" y="788.3" font-family="monospace" font-size="9">PF-013</text>
<circle cx="1168.4" cy="797.2" r="6" fill="#222"/><text x="1176.4" y="800.2" font-family="monospace" font-size="9">PF-014</text>
<circle cx="925.0" cy="870.0" r="6" fill="#222"/><text x="933.0" y="873.0" font-family="monospace" font-size="9">PF-015</text>
<circle cx="1127.4" cy="799.7" r="6" fill="#222"/><text x="1135.4" y="802.7" font-family="monospace" font-size="9">PF-016</text>
<circle cx="918.2" cy="899.2" r="6" fill="#222"/><text x="926.2" y="902.2" font-family="monospace" font-size="9">PF-017</text>
<circle cx="898.6" cy="925.3" r="6" fill="#222"/><text x="906.6" y="928.3" font-family="monospace" font-size="9">PF-018</text>
<circle cx="868.4" cy="945.3" r="6" fill="#222"/><text x="876.4" y="948.3" font-family="monospace" font-size="9">PF-019</text>
<circle cx="830.7" cy="957.2" r="6" fill="#222"/><text x="838.7" y="960.2" font-family="monospace" font-size="9">PF-020</text>
<circle cx="789.7" cy="959.7" r="6" fill="#222"/><text x="797.7" y="962.7" font-family="monospace" font-size="9">PF-021</text>
<circle cx="749.8" cy="952.4" r="6" fill="#222"/><text x="757.8" y="955.4" font-family="monospace" font-size="9">PF-022</text>
<circle cx="1254.3" cy="422.5" r="6" fill="#222"/><text x="1262.3" y="425.5" font-family="monospace" font-size="9">PF-023</text>
<circle cx="1230.1" cy="450.6" r="6" fill="#222"/><text x="1238.1" y="453.6" font-family="monospace" font-size="9">PF-024</text>
<circle cx="540.2" cy="780.4" r="6" fill="#222"/><text x="548.2" y="783.4" font-family="monospace" font-size="9">PF-025</text>
<circle cx="490.1" cy="797.7" r="6" fill="#222"/><text x="498.1" y="800.7" font-family="monospace" font-size="9">PF-026</text>
<circle cx="434.4" cy="797.7" r="6" fill="#222"/><text x="442.4" y="800.7" font-family="monospace" font-size="9">PF-027</text>
<circle cx="1193.5" cy="470.6" r="6" fill="#222"/><text x="1201.5" y="473.6" font-family="monospace" font-size="9">PF-028</text>
<circle cx="1149.3" cy="479.6" r="6" fill="#222"/><text x="1157.3" y="482.6" font-family="monospace" font-size="9">PF-029</text>
<circle cx="1103.5" cy="476.6" r="6" fill="#222"/><text x="1111.5" y="479.6" font-family="monospace" font-size="9">PF-030</text>
<circle cx="384.3" cy="780.4" r="6" fill="#222"/><text x="392.3" y="783.4" font-family="monospace" font-size="9">PF-031</text>
<circle cx="349.6" cy="749.0" r="6" fill="#222"/><text x="357.6" y="752.0" font-family="monospace" font-size="9">PF-032</text>
<circle cx="1062.4" cy="461.8" r="6" fill="#222"/><text x="1070.4" y="464.8" font-family="monospace" font-size="9">PF-033</text>
<circle cx="851.9" cy="311.9" r="6" fill="#222"/><text x="859.9" y="314.9" font-family="monospace" font-size="9">PF-034</text>
<circle cx="1031.5" cy="437.4" r="6" fill="#222"/><text x="1039.5" y="440.4" font-family="monospace" font-size="9">PF-035</text>
<circle cx="423.6" cy="475.6" r="6" fill="#222"/><text x="431.6" y="478.6" font-family="monospace" font-size="9">PF-036</text>
<circle cx="715.0" cy="658.3" r="6" fill="#222"/><text x="723.0" y="661.3" font-family="monospace" font-size="9">PF-037</text>
<circle cx="782.2" cy="319.1" r="6" fill="#222"/><text x="790.2" y="322.1" font-family="monospace" font-size="9">PF-038</text>
<circle cx="1087.5" cy="792.4" r="6" fill="#222"/><text x="1095.5" y="795.4" font-family="monospace" font-size="9">PF-039</text>
<circle cx="1053.1" cy="776.2" r="6" fill="#222"/><text x="1061.1" y="779.2" font-family="monospace" font-size="9">PF-040</text>
<circle cx="1014.9" cy="406.5" r="6" fill="#222"/><text x="1022.9" y="409.5" font-family="monospace" font-size="9">PF-041</text>
<circle cx="718.1" cy="298.0" r="6" fill="#222"/><text x="726.1" y="301.0" font-family="monospace" font-size="9">PF-042</text>
<circle cx="680.1" cy="255.4" r="6" fill="#222"/><text x="688.1" y="258.4" font-family="monospace" font-size="9">PF-043</text>
<circle cx="1027.8" cy="752.8" r="6" fill="#222"/><text x="1035.8" y="755.8" font-family="monospace" font-size="9">PF-044</text>
<circle cx="715.3" cy="936.2" r="6" fill="#222"/><text x="723.3" y="939.2" font-family="monospace" font-size="9">PF-045</text>
<circle cx="1014.9" cy="373.5" r="6" fill="#222"/><text x="1022.9" y="376.5" font-family="monospace" font-size="9">PF-046</text>
<circle cx="715.0" cy="441.7" r="6" fill="#222"/><text x="723.0" y="444.7" font-family="monospace" font-size="9">PF-047</text>
<circle cx="680.1" cy="204.6" r="6" fill="#222"/><text x="688.1" y="207.6" font-family="monospace" font-size="9">PF-048</text>
<circle cx="1031.5" cy="342.6" r="6" fill="#222"/><text x="1039.5" y="345.6" font-family="monospace" font-size="9">PF-049</text>
<circle cx="1014.5" cy="724.8" r="6" fill="#222"/><text x="1022.5" y="727.8" font-family="monospace" font-size="9">PF-050</text>
<circle cx="1062.4" cy="318.2" r="6" fill="#222"/><text x="1070.4" y="321.2" font-family="monospace" font-size="9">PF-051</text>
<circle cx="1103.5" cy="303.4" r="6" fill="#222"/><text x="1111.5" y="306.4" font-family="monospace" font-size="9">PF-052</text>
<circle cx="1149.3" cy="300.4" r="6" fill="#222"/><text x="1157.3" y="303.4" font-family="monospace" font-size="9">PF-053</text>
<circle cx="1014.5" cy="695.2" r="6" fill="#222"/><text x="1022.5" y="698.2" font-family="monospace" font-size="9">PF-054</text>
<circle cx="1193.5" cy="309.4" r="6" fill="#222"/><text x="1201.5" y="312.4" font-family="monospace" font-size="9">PF-055</text>
<circle cx="718.1" cy="162.0" r="6" fill="#222"/><text x="726.1" y="165.0" font-family="monospace" font-size="9">PF-056</text>
<circle cx="782.2" cy="140.9" r="6" fill="#222"/><text x="790.2" y="143.9" font-family="monospace" font-size="9">PF-057</text>
<circle cx="1230.1" cy="329.4" r="6" fill="#222"/><text x="1238.1" y="332.4" font-family="monospace" font-size="9">PF-058</text>
<circle cx="337.3" cy="710.0" r="6" fill="#222"/><text x="345.3" y="713.0" font-family="monospace" font-size="9">PF-059</text>
<circle cx="349.6" cy="671.0" r="6" fill="#222"/><text x="357.6" y="674.0" font-family="monospace" font-size="9">PF-060</text>
<circle cx="384.3" cy="639.6" r="6" fill="#222"/><text x="392.3" y="642.6" font-family="monospace" font-size="9">PF-061</text>
<circle cx="690.1" cy="912.8" r="6" fill="#222"/><text x="698.1" y="915.8" font-family="monospace" font-size="9">PF-062</text>
<circle cx="676.7" cy="884.8" r="6" fill="#222"/><text x="684.7" y="887.8" font-family="monospace" font-size="9">PF-063</text>
<circle cx="676.7" cy="855.2" r="6" fill="#222"/><text x="684.7" y="858.2" font-family="monospace" font-size="9">PF-064</text>
<circle cx="690.1" cy="827.2" r="6" fill="#222"/><text x="698.1" y="830.2" font-family="monospace" font-size="9">PF-065</text>
<circle cx="715.3" cy="803.8" r="6" fill="#222"/><text x="723.3" y="806.8" font-family="monospace" font-size="9">PF-066</text>
<circle cx="749.8" cy="787.6" r="6" fill="#222"/><text x="757.8" y="790.6" font-family="monospace" font-size="9">PF-067</text>
<circle cx="789.7" cy="780.3" r="6" fill="#222"/><text x="797.7" y="783.3" font-family="monospace" font-size="9">PF-068</text>
<circle cx="830.7" cy="782.8" r="6" fill="#222"/><text x="838.7" y="785.8" font-family="monospace" font-size="9">PF-069</text>
<circle cx="868.4" cy="794.7" r="6" fill="#222"/><text x="876.4" y="797.7" font-family="monospace" font-size="9">PF-070</text>
<circle cx="898.6" cy="814.7" r="6" fill="#222"/><text x="906.6" y="817.7" font-family="monospace" font-size="9">PF-071</text>
<circle cx="851.9" cy="148.1" r="6" fill="#222"/><text x="859.9" y="151.1" font-family="monospace" font-size="9">PF-072</text>
<circle cx="1053.1" cy="643.8" r="6" fill="#222"/><text x="1061.1" y="646.8" font-family="monospace" font-size="9">PF-073</text>
<circle cx="918.2" cy="840.8" r="6" fill="#222"/><text x="926.2" y="843.8" font-family="monospace" font-size="9">PF-074</text>
<circle cx="1087.5" cy="627.6" r="6" fill="#222"/><text x="1095.5" y="630.6" font-family="monospace" font-size="9">PF-075</text>
<circle cx="1127.4" cy="620.3" r="6" fill="#222"/><text x="1135.4" y="623.3" font-family="monospace" font-size="9">PF-076</text>
<circle cx="1168.4" cy="622.8" r="6" fill="#222"/><text x="1176.4" y="625.8" font-family="monospace" font-size="9">PF-077</text>
<circle cx="434.4" cy="622.3" r="6" fill="#222"/><text x="442.4" y="625.3" font-family="monospace" font-size="9">PF-078</text>
<circle cx="361.1" cy="337.1" r="6" fill="#222"/><text x="369.1" y="340.1" font-family="monospace" font-size="9">PF-079</text>
<circle cx="423.6" cy="304.4" r="6" fill="#222"/><text x="431.6" y="307.4" font-family="monospace" font-size="9">PF-080</text>
<circle cx="1206.1" cy="634.7" r="6" fill="#222"/><text x="1214.1" y="637.7" font-family="monospace" font-size="9">PF-081</text>
<circle cx="905.2" cy="181.3" r="6" fill="#222"/><text x="913.2" y="184.3" font-family="monospace" font-size="9">PF-082</text>
<circle cx="500.9" cy="304.4" r="6" fill="#222"/><text x="508.9" y="307.4" font-family="monospace" font-size="9">PF-083</text>
<circle cx="490.1" cy="622.3" r="6" fill="#222"/><text x="498.1" y="625.3" font-family="monospace" font-size="9">PF-084</text>
<circle cx="540.2" cy="639.6" r="6" fill="#222"/><text x="548.2" y="642.6" font-family="monospace" font-size="9">PF-085</text>
<circle cx="574.9" cy="671.0" r="6" fill="#222"/><text x="582.9" y="674.0" font-family="monospace" font-size="9">PF-086</text>
<circle cx="1254.3" cy="357.5" r="6" fill="#222"/><text x="1262.3" y="360.5" font-family="monospace" font-size="9">PF-087</text>
<circle cx="1236.4" cy="654.7" r="6" fill="#222"/><text x="1244.4" y="657.7" font-family="monospace" font-size="9">PF-088</text>
<circle cx="1256.0" cy="680.8" r="6" fill="#222"/><text x="1264.0" y="683.8" font-family="monospace" font-size="9">PF-089</text>
<circle cx="563.4" cy="337.1" r="6" fill="#222"/><text x="571.4" y="340.1" font-family="monospace" font-size="9">PF-090</text>
</svg>